# xmcd
#
# Track frame offsets: 
#        183
#        40758
#        66708
#        69893
#        75408
#        78598
#        82983
#        87633
#        91608
#        98690
#        103233
#        108950
#        111640
#        117633
#        124343
#        126883
#        132298
#        138783
#        144708
#        152358
#        175233
#        189408
#        201408
#        214758
#
# Disc length: 3197 seconds
#
# Revision: 4
# Processed by: cddbd v1.5.2PL0 Copyright (c) Steve Scherf et al.
# Submitted via: ExactAudioCopy v0.95b4
#
DISCID=570c7b18
DTITLE=Stephen Bishop Kovacevich, Klavier - Johannes Brahms - Rhapsodi
DTITLE=es Op.79, Waltzes Op.39, Klavierstuecke Op.118
DYEAR=1981
DGENRE=Classical
TTITLE0=Rhapsody in B minor, Op. 79/1
TTITLE1=Rhapsody in G Minor, Op. 79/2
TTITLE2=16 Waltzes, Op. 39 - No. 1 in B
TTITLE3=16 Waltzes, Op. 39 - No. 2 in E
TTITLE4=16 Waltzes, Op. 39 - No. 3 in G sharp minor
TTITLE5=16 Waltzes, Op. 39 - No. 4 in E minor
TTITLE6=16 Waltzes, Op. 39 - No. 5 in E
TTITLE7=16 Waltzes, Op. 39 - No. 6 in C sharp
TTITLE8=16 Waltzes, Op. 39 - No. 7 in C sharp minor
TTITLE9=16 Waltzes, Op. 39 - No. 8 in B flat
TTITLE10=16 Waltzes, Op. 39 - No. 9 in D minor
TTITLE11=16 Waltzes, Op. 39 - No. 10 in G
TTITLE12=16 Waltzes, Op. 39 - No. 11 in B minor
TTITLE13=16 Waltzes, Op. 39 - No. 12 in E
TTITLE14=16 Waltzes, Op. 39 - No. 13 in B
TTITLE15=16 Waltzes, Op. 39 - No. 14 in G sharp minor
TTITLE16=16 Waltzes, Op. 39 - No. 15 in A flat
TTITLE17=16 Waltzes, Op. 39 - No. 16 in C sharp minor
TTITLE18=Six Piano Pieces, Op. 118 - No. 1 Intermezzo in A minor (Alle
TTITLE18=gro non assai, ma molto appassionato)
TTITLE19=Six Piano Pieces, Op. 118 - No. 2  Intermezzo in A (Andante t
TTITLE19=eneramente)
TTITLE20=Six Piano Pieces, Op. 118 - No. 3 Ballade in G minor (Allegro
TTITLE20=energico)
TTITLE21=Six Piano Pieces, Op. 118 - No. 4 Intermezzo in F minor (Alle
TTITLE21=gretto un poco agitato)
TTITLE22=Six Piano Pieces, Op. 118 - No. 5 Romanze in F (Andante - All
TTITLE22=egretto grazioso - Tempo I)
TTITLE23=Six Piano Pieces, Op. 118 -  No. 6 Intermizzo in E flat minor
TTITLE23=(Andante, largo e mesto)
EXTD=rec'd: London, 12/1981
EXTT0=
EXTT1=Brahms\n
EXTT2=
EXTT3=
EXTT4=
EXTT5=
EXTT6=
EXTT7=
EXTT8=
EXTT9=
EXTT10=
EXTT11=
EXTT12=
EXTT13=
EXTT14=
EXTT15=
EXTT16=
EXTT17=
EXTT18=
EXTT19=
EXTT20=
EXTT21=
EXTT22=
EXTT23=
PLAYORDER=
